<svg width="20" height="20" viewBox="0 0 20 20" fill="none" xmlns="http://www.w3.org/2000/svg">
<g clip-path="url(#clip0_476_1360)">
<path d="M18.9726 8.59615C18.9726 8.59615 18.734 8.11885 18.1373 7.04493C17.5407 5.971 17.1827 6.09033 17.1827 6.09033H11.3358C10.6199 6.09033 10.2619 5.61303 10.2619 5.61303C10.2619 5.61303 9.90393 5.01641 9.42663 4.06181C8.94933 3.10721 9.66528 3.10721 9.66528 3.10721H15.2735C15.9895 3.10721 15.5122 2.51059 15.5122 2.51059C15.5122 2.51059 15.1542 1.79464 14.5576 0.840045C13.961 -0.114552 13.6233 0.00477299 13.6233 0.00477299H8.11406C7.04014 0.00477299 7.27879 0.601396 7.27879 0.601396C7.27879 0.601396 7.39811 0.95937 7.99474 2.03329C8.59136 3.10721 8.00189 2.94732 8.00189 2.94732C8.00189 2.94732 5.48892 3.10721 2.02851 2.98789C-0.715961 2.62991 0.119311 4.77776 0.119311 4.77776L8.59136 19.4547C9.18798 20.4093 9.56028 19.8198 9.56028 19.8198C9.56028 19.8198 9.90393 19.0967 10.2619 18.6194C10.6199 18.1421 10.3812 17.6648 10.3812 17.6648C10.3812 17.6648 8.23339 14.0851 7.63676 13.1305C7.04014 12.1759 7.75609 12.1759 7.75609 12.1759H12.887C13.8416 12.1759 13.7223 11.4599 13.7223 11.4599C13.7223 11.4599 13.1257 10.2667 12.8107 9.72734C12.4957 9.188 13.245 9.19277 13.245 9.19277H18.376C19.5692 9.19277 18.9726 8.59615 18.9726 8.59615ZM11.4528 9.01378H5.96383C5.56887 9.01378 5.07486 8.6928 4.86127 8.29783L4.08805 6.86594C3.87446 6.47097 4.02123 6.14999 4.41738 6.14999H9.90632C10.3013 6.14999 10.7953 6.47097 11.0089 6.86594L11.7821 8.29783C11.9957 8.6928 11.8489 9.01378 11.4528 9.01378Z" fill="#F1F5FF"/>
</g>
<defs>
<clipPath id="clip0_476_1360">
<rect width="19.1218" height="20" fill="white"/>
</clipPath>
</defs>
</svg>
