<svg width="21" height="20" viewBox="0 0 21 20" fill="none" xmlns="http://www.w3.org/2000/svg">
<g clip-path="url(#clip0_474_1356)">
<path d="M10.339 0C4.62881 0 0 4.47712 0 10C0 15.5229 4.62881 20 10.339 20C16.0492 20 20.678 15.5229 20.678 10C20.678 4.47712 16.0492 0 10.339 0ZM6.47288 14.5941C5.77288 14.6508 5.15932 14.1297 5.10254 13.4305L4.90763 11.039C4.85085 10.339 5.37203 9.72542 6.07119 9.66864C6.77119 9.61186 7.38475 10.1331 7.44152 10.8322L7.63644 13.2237C7.69322 13.9237 7.17203 14.5373 6.47288 14.5941ZM14.8627 14.0856C14.1627 14.1424 13.5492 13.6212 13.4924 12.922L13.2975 10.5305C13.2407 9.83051 13.7619 9.21695 14.461 9.16017C15.161 9.10339 15.7746 9.62458 15.8314 10.3237L16.0263 12.7153C16.083 13.4153 15.5619 14.0288 14.8627 14.0856Z" fill="#F1F5FF"/>
</g>
<defs>
<clipPath id="clip0_474_1356">
<rect width="20.678" height="20" fill="white"/>
</clipPath>
</defs>
</svg>
