<svg width="338" height="63" viewBox="0 0 338 63" fill="none" xmlns="http://www.w3.org/2000/svg">
<mask id="mask0_293_2807" style="mask-type:alpha" maskUnits="userSpaceOnUse" x="0" y="0" width="338" height="63">
<rect width="338" height="62.3129" rx="8" fill="#F1F5FF"/>
</mask>
<g mask="url(#mask0_293_2807)">
<g opacity="0.6">
<path d="M284.865 40.4338C286.799 40.0032 288.755 41.1753 289.223 43.0458C289.69 44.9163 288.497 46.7895 286.563 47.2201C284.628 47.6508 282.673 46.4787 282.205 44.6081C281.737 42.7376 282.931 40.8644 284.865 40.4338ZM286.097 45.3597C286.973 45.1647 287.511 44.3211 287.299 43.4741C287.087 42.6271 286.206 42.0992 285.331 42.2943C284.455 42.4893 283.917 43.3328 284.129 44.1798C284.341 45.0269 285.221 45.5547 286.097 45.3597Z" fill="#3E8DDD"/>
<path d="M258.326 24.4831C260.26 24.0525 262.216 25.2246 262.684 27.0951C263.151 28.9656 261.958 30.8388 260.024 31.2695C258.089 31.7001 256.134 30.528 255.666 28.6575C255.198 26.7869 256.392 24.9138 258.326 24.4831ZM259.558 29.409C260.434 29.214 260.972 28.3705 260.76 27.5234C260.548 26.6764 259.667 26.1486 258.791 26.3436C257.916 26.5386 257.378 27.3821 257.59 28.2292C257.802 29.0762 258.682 29.604 259.558 29.409Z" fill="#3E8DDD"/>
<path d="M299.993 8.31466C301.927 7.88403 303.883 9.05612 304.35 10.9266C304.818 12.7972 303.625 14.6704 301.691 15.101C299.756 15.5316 297.801 14.3595 297.333 12.489C296.865 10.6185 298.059 8.7453 299.993 8.31466ZM301.225 13.2406C302.101 13.0456 302.639 12.202 302.427 11.355C302.215 10.5079 301.334 9.98011 300.458 10.1751C299.583 10.3701 299.045 11.2137 299.257 12.0607C299.469 12.9077 300.349 13.4356 301.225 13.2406Z" fill="#3E8DDD"/>
<path d="M256.211 36.5218C256.456 36.4672 256.724 36.5034 256.962 36.642L261.747 39.5101C262.213 39.7896 262.361 40.3795 262.076 40.8261C261.792 41.2727 261.182 41.4085 260.715 41.129L255.931 38.2609C255.465 37.9814 255.317 37.3915 255.602 36.9449C255.744 36.7217 255.966 36.5763 256.216 36.5206L256.211 36.5218Z" fill="#3E8DDD"/>
<path d="M260.064 35.664C260.309 35.6094 260.577 35.6456 260.815 35.7842C261.281 36.0636 261.429 36.6535 261.144 37.1001L258.223 41.6839C257.939 42.1304 257.329 42.2662 256.863 41.9868C256.396 41.7074 256.249 41.1175 256.534 40.6709L259.454 36.0872C259.597 35.8639 259.819 35.7186 260.069 35.6628L260.064 35.664Z" fill="#3E8DDD"/>
<path d="M203.945 3.90508C204.19 3.85053 204.457 3.88673 204.696 4.02529L209.48 6.89343C209.947 7.17287 210.094 7.76278 209.81 8.20936C209.525 8.65595 208.915 8.79176 208.449 8.51232L203.664 5.64416C203.198 5.36472 203.05 4.77483 203.335 4.32825C203.477 4.10495 203.7 3.95964 203.95 3.90392L203.945 3.90508Z" fill="#3E8DDD"/>
<path d="M207.797 3.0473C208.042 2.99274 208.31 3.02894 208.548 3.1675C209.015 3.44694 209.162 4.03684 208.878 4.48342L205.957 9.06715C205.672 9.51374 205.062 9.64955 204.596 9.37011C204.13 9.09067 203.982 8.50076 204.267 8.05417L207.188 3.47046C207.33 3.24716 207.552 3.10185 207.803 3.04614L207.797 3.0473Z" fill="#3E8DDD"/>
<path d="M270.979 52.0599C271.224 52.0053 271.492 52.0415 271.73 52.1801L276.515 55.0482C276.981 55.3277 277.128 55.9176 276.844 56.3642C276.559 56.8107 275.949 56.9465 275.483 56.6671L270.698 53.7989C270.232 53.5195 270.085 52.9296 270.369 52.483C270.511 52.2597 270.734 52.1144 270.984 52.0587L270.979 52.0599Z" fill="#3E8DDD"/>
<path d="M274.832 51.2021C275.077 51.1475 275.344 51.1837 275.583 51.3223C276.049 51.6017 276.196 52.1916 275.912 52.6382L272.991 57.2219C272.706 57.6685 272.096 57.8043 271.63 57.5249C271.164 57.2455 271.017 56.6555 271.301 56.209L274.222 51.6252C274.364 51.4019 274.587 51.2566 274.837 51.2009L274.832 51.2021Z" fill="#3E8DDD"/>
</g>
<g opacity="0.7">
<path d="M316.301 47.9459H297.209C296.275 47.9459 295.515 47.1851 295.515 46.2503C295.515 45.3154 296.275 44.5547 297.209 44.5547H316.301C317.235 44.5547 317.996 45.3154 317.996 46.2503C317.996 47.1851 317.235 47.9459 316.301 47.9459Z" fill="#3E8DDD"/>
<path d="M346.697 47.9459H327.606C326.671 47.9459 325.911 47.1851 325.911 46.2503C325.911 45.3154 326.671 44.5547 327.606 44.5547H346.697C347.632 44.5547 348.392 45.3154 348.392 46.2503C348.392 47.1851 347.632 47.9459 346.697 47.9459Z" fill="#3E8DDD"/>
<path d="M321.949 72.6968C321.014 72.6968 320.254 71.9361 320.254 71.0012V51.9007C320.254 50.9658 321.014 50.2051 321.949 50.2051C322.884 50.2051 323.644 50.9658 323.644 51.9007V71.0012C323.644 71.9361 322.884 72.6968 321.949 72.6968Z" fill="#3E8DDD"/>
<path d="M321.949 42.3092C321.014 42.3092 320.254 41.5485 320.254 40.6137V21.5222C320.254 20.5874 321.014 19.8267 321.949 19.8267C322.884 19.8267 323.644 20.5874 323.644 21.5222V40.6228C323.644 41.5577 322.884 42.3184 321.949 42.3184V42.3092Z" fill="#3E8DDD"/>
<path d="M321.946 69.3104C309.249 69.3104 298.915 58.9719 298.915 46.2687C298.915 33.5656 309.239 23.2271 321.946 23.2271C334.652 23.2271 344.976 33.5656 344.976 46.2687C344.976 58.9719 334.643 69.3104 321.946 69.3104ZM321.946 26.6091C311.108 26.6091 302.295 35.4261 302.295 46.2687C302.295 57.1113 311.108 65.9284 321.946 65.9284C332.783 65.9284 341.596 57.1113 341.596 46.2687C341.596 35.4261 332.774 26.6091 321.946 26.6091Z" fill="#3E8DDD"/>
<path d="M333.959 45.3853C333.046 45.5839 332.142 45.0021 331.943 44.0886C330.742 38.5626 325.274 35.053 319.759 36.2523C315.668 37.142 312.565 40.3775 311.84 44.5028C311.682 45.4187 310.805 46.0409 309.879 45.8766C308.963 45.7192 308.341 44.8415 308.506 43.9148C309.46 38.4266 313.597 34.1222 319.039 32.9385C326.38 31.342 333.649 36.0172 335.244 43.3612C335.443 44.2748 334.861 45.1797 333.948 45.3783L333.959 45.3853Z" fill="#3E8DDD"/>
<path d="M324.847 59.585C317.507 61.1815 310.238 56.5063 308.642 49.1623C308.444 48.2487 309.025 47.3438 309.938 47.1452C310.851 46.9466 311.756 47.5284 311.954 48.4419C313.155 53.9679 318.624 57.4775 324.138 56.2782C328.229 55.3885 331.332 52.153 332.058 48.0277C332.215 47.1118 333.092 46.4896 334.019 46.6539C334.934 46.8112 335.556 47.689 335.392 48.6157C334.438 54.1039 330.301 58.4083 324.858 59.592L324.847 59.585Z" fill="#3E8DDD"/>
</g>
</g>
</svg>
