<svg width="21" height="20" viewBox="0 0 21 20" fill="none" xmlns="http://www.w3.org/2000/svg" opacity="0.15">
<g clip-path="url(#clip0_477_1387)">
<path d="M10.0349 4.18135C11.8132 4.18135 13.4077 4.97926 14.4824 6.23452L18.1905 4.18666C16.3683 1.65156 13.3944 0 10.0349 0C6.6753 0 3.81493 1.58917 1.9848 4.04262L5.65236 6.16084C6.72509 4.94872 8.29168 4.18202 10.0342 4.18202L10.0349 4.18135Z" fill="#F1F5FF"/>
<path d="M15.6348 8.33239C15.7994 8.87141 15.8883 9.44361 15.8883 10.0357C15.8883 12.8569 13.8823 15.2181 11.2224 15.7684V20.0009C16.205 19.4134 20.0697 15.1763 20.0697 10.0357C20.0697 8.70877 19.8115 7.44288 19.3442 6.2832L15.6348 8.33239Z" fill="#F1F5FF"/>
<path d="M4.18135 10.0353C4.18135 9.40868 4.28159 8.80528 4.4648 8.23838L0.792592 6.11816C0.282784 7.32166 0 8.6453 0 10.0353C0 15.1692 3.85542 19.4024 8.82937 19.9985V15.764C6.1781 15.2064 4.18135 12.8499 4.18135 10.036V10.0353Z" fill="#F1F5FF"/>
</g>
<defs>
<clipPath id="clip0_477_1387">
<rect width="20.0704" height="20" fill="white"/>
</clipPath>
</defs>
</svg>
