<svg width="150" height="47" viewBox="0 0 150 47" fill="none" xmlns="http://www.w3.org/2000/svg">
<path d="M23.3591 21.246C23.3709 21.246 23.3856 21.256 23.3938 21.2631C26.5678 23.6741 32.0023 29.6371 30.3455 31.3215C28.4787 32.953 26.0348 33.9415 23.3591 33.9415C20.6834 33.9415 18.2394 32.953 16.3726 31.3215C14.7152 29.6371 20.1497 23.6735 23.3237 21.2631C23.3319 21.256 23.3467 21.246 23.3591 21.246ZM28.8879 14.2969C27.2624 13.3325 25.5012 12.7461 23.3591 12.7461C21.217 12.7461 19.4558 13.3325 17.8302 14.2969C17.8113 14.3075 17.8036 14.3299 17.8125 14.3493C17.8213 14.3687 17.8425 14.3723 17.8638 14.3675C19.9186 13.9242 23.0407 15.6964 23.3367 15.8742C23.3431 15.8783 23.3502 15.8824 23.3591 15.8824C23.3679 15.8824 23.375 15.8783 23.3815 15.8742C23.6775 15.6964 26.7989 13.9242 28.8543 14.3675C28.8756 14.3723 28.8968 14.3687 28.9056 14.3493C28.9151 14.3299 28.9068 14.3075 28.8879 14.2969ZM15.9298 15.787C15.9121 15.7959 15.8968 15.8088 15.8826 15.823C13.9457 17.7429 12.7458 20.4029 12.7458 23.3438C12.7458 25.7583 13.5548 27.982 14.9163 29.7642C14.9292 29.7813 14.954 29.7925 14.9729 29.7813C14.9911 29.7707 14.9923 29.7472 14.9852 29.7265C14.1763 27.229 18.3125 21.1736 20.4493 18.6349C20.4569 18.626 20.4634 18.616 20.4634 18.6043C20.4634 18.589 20.4552 18.5778 20.4451 18.5689C17.2081 15.3531 16.1085 15.6952 15.9304 15.787H15.9298ZM26.273 18.5689C26.2629 18.5778 26.2547 18.589 26.2547 18.6043C26.2547 18.616 26.2618 18.626 26.2688 18.6349C28.405 21.1736 32.5418 27.229 31.7329 29.7265C31.7258 29.7472 31.727 29.7707 31.7453 29.7813C31.7641 29.7925 31.7889 29.7813 31.8019 29.7642C33.1633 27.982 33.9723 25.7577 33.9723 23.3438C33.9723 20.4029 32.7718 17.7429 30.8355 15.823C30.8213 15.8088 30.806 15.7959 30.7883 15.787C30.6096 15.6952 29.5106 15.3537 26.2736 18.5689H26.273ZM59.4905 17.1324H57.2859L52.3048 29.8714H54.3284L55.5613 26.5708H61.2158L62.4487 29.8714H64.4723L59.4911 17.1324H59.4905ZM56.1828 24.8746L58.3885 19.0423L60.5943 24.8746H56.1828ZM51.2848 23.1619V29.8708H49.4516V28.2034C48.9799 28.8458 48.3974 29.3356 47.7193 29.6594C47.0295 29.9891 46.2211 30.1563 45.3172 30.1563C44.4133 30.1563 43.5684 30.0015 42.8402 29.6953C42.1114 29.3892 41.4675 28.9241 40.9263 28.3123C40.3732 27.7071 39.9528 26.9953 39.6763 26.1963C39.3997 25.3986 39.26 24.4913 39.26 23.501C39.26 22.5107 39.4015 21.584 39.681 20.7833C39.9605 19.982 40.3856 19.2713 40.9446 18.6714C41.4976 18.0655 42.155 17.6051 42.8986 17.3019C43.6415 16.9993 44.4917 16.8456 45.4245 16.8456C46.9817 16.8456 48.2901 17.2554 49.3131 18.0626C50.3249 18.8827 50.9398 19.9849 51.1421 21.3391L51.145 21.3603H49.1427L49.1397 21.3455C48.9628 20.4977 48.5354 19.8171 47.8697 19.3231C47.2034 18.8286 46.3868 18.5778 45.4422 18.5778C44.1792 18.5778 43.1627 19.0258 42.4192 19.909C41.6633 20.7815 41.28 21.9902 41.28 23.5004C41.28 25.0106 41.6633 26.2193 42.4186 27.0918C43.1857 27.9756 44.2146 28.4236 45.4776 28.4236C46.5754 28.4236 47.5147 28.0768 48.27 27.3939C49.02 26.7268 49.4204 25.8613 49.4605 24.8216H45.7093V23.1607H51.2848V23.1619ZM82.487 18.8822V22.5731H88.8243V24.1981H82.487V28.121H89.6509V29.8708H80.5377V17.1318H89.6509V18.8816H82.487V18.8822ZM78.589 17.1324V29.8714H76.7117V19.7624C76.4705 20.4718 76.1468 21.3514 75.7476 22.3847L72.8667 29.8714H71.2335L71.2288 29.8596L68.3166 22.3847C67.9699 21.4621 67.6527 20.5943 67.3703 19.7989V29.8714H65.4929V17.1324H68.1686L70.7818 23.9055C71.306 25.2773 71.7388 26.466 72.0684 27.4392C72.4552 26.2823 72.8938 25.0335 73.3732 23.7271L75.8968 17.1318H78.5902L78.589 17.1324ZM103.177 18.2169C102.415 17.4974 101.329 17.1324 99.9487 17.1324H94.5165V29.8714H96.4658V25.1795H99.9487C101.329 25.1795 102.415 24.8145 103.177 24.095C103.94 23.375 104.327 22.3894 104.327 21.1648C104.327 19.9402 103.94 18.9363 103.177 18.2169ZM96.4658 18.8468H99.9133C100.703 18.8468 101.311 19.0494 101.722 19.448C102.133 19.8466 102.342 20.4247 102.342 21.1648C102.342 21.9049 102.133 22.4801 101.722 22.8728C101.311 23.2661 100.702 23.4651 99.9127 23.4651H96.4652V18.8462L96.4658 18.8468ZM125.906 26.3388C125.906 27.5169 125.462 28.4584 124.585 29.1366C123.711 29.8137 122.483 30.1575 120.938 30.1575C119.262 30.1575 117.939 29.7719 117.005 29.0118C116.07 28.2505 115.59 27.123 115.577 25.6617V25.6429H117.526V25.6612C117.544 26.6026 117.842 27.3179 118.413 27.7878C118.984 28.2582 119.846 28.4972 120.973 28.4972C121.906 28.4972 122.633 28.3153 123.133 27.9567C123.632 27.5994 123.885 27.0736 123.885 26.393C123.885 25.8431 123.677 25.4127 123.268 25.1148C122.855 24.8145 122.1 24.5425 121.024 24.3064L119.934 24.0744C118.627 23.8136 117.626 23.3797 116.96 22.7856C116.292 22.1898 115.953 21.3573 115.953 20.3099C115.953 19.2625 116.364 18.4141 117.176 17.7888C117.985 17.1647 119.095 16.8486 120.475 16.8486C122.139 16.8486 123.408 17.2101 124.248 17.9237C125.088 18.6372 125.526 19.6328 125.55 20.881V20.8998H123.62L123.618 20.8828C123.56 20.0715 123.288 19.4668 122.812 19.0853C122.336 18.7032 121.555 18.5095 120.493 18.5095C119.667 18.5095 119.028 18.6643 118.592 18.9699C118.159 19.2743 117.939 19.7129 117.939 20.2746C117.939 20.8363 118.134 21.2878 118.521 21.5799C118.91 21.8978 119.641 22.1727 120.693 22.3971L121.8 22.629C123.25 22.9375 124.308 23.3891 124.945 23.9714C125.583 24.5549 125.906 25.3521 125.906 26.34L125.906 26.3388ZM137.254 26.3388C137.254 27.5169 136.81 28.4584 135.933 29.1366C135.059 29.8137 133.831 30.1575 132.286 30.1575C130.61 30.1575 129.287 29.7719 128.353 29.0118C127.417 28.2505 126.937 27.123 126.925 25.6617V25.6429H128.874V25.6612C128.892 26.6026 129.19 27.3179 129.761 27.7878C130.332 28.2582 131.194 28.4972 132.321 28.4972C133.254 28.4972 133.981 28.3153 134.481 27.9567C134.98 27.5994 135.233 27.0736 135.233 26.393C135.233 25.8431 135.025 25.4127 134.616 25.1148C134.203 24.8145 133.447 24.5425 132.371 24.3064L131.282 24.0744C129.975 23.8136 128.974 23.3797 128.308 22.7856C127.64 22.1898 127.301 21.3573 127.301 20.3099C127.301 19.2625 127.712 18.4141 128.524 17.7888C129.333 17.1647 130.443 16.8486 131.822 16.8486C133.487 16.8486 134.756 17.2101 135.595 17.9237C136.436 18.6372 136.874 19.6328 136.897 20.881V20.8998H134.968L134.966 20.8828C134.907 20.0715 134.636 19.4668 134.16 19.0853C133.684 18.7032 132.903 18.5095 131.841 18.5095C131.015 18.5095 130.376 18.6643 129.94 18.9699C129.506 19.2743 129.287 19.7129 129.287 20.2746C129.287 20.8363 129.482 21.2878 129.868 21.5799C130.258 21.8978 130.989 22.1727 132.041 22.3971L133.148 22.629C134.598 22.9375 135.656 23.3891 136.292 23.9714C136.93 24.5549 137.254 25.3521 137.254 26.34L137.254 26.3388ZM110.154 17.133H107.95L102.969 29.872H104.992L106.225 26.5714H111.88L113.113 29.872H115.136L110.155 17.133H110.154ZM106.847 24.8752L109.052 19.0429L111.258 24.8752H106.847Z" fill="white"/>
</svg>
