<svg width="52" height="52" viewBox="0 0 52 52" fill="none" xmlns="http://www.w3.org/2000/svg">
<circle cx="26" cy="26" r="26" fill="#F4F4F5"/>
<path d="M37.5406 20.42C37.4218 19.9454 37.1799 19.5106 36.8392 19.1594C36.4986 18.8082 36.0713 18.5532 35.6006 18.42C33.8806 18 27.0006 18 27.0006 18C27.0006 18 20.1206 18 18.4006 18.46C17.9298 18.5932 17.5025 18.8482 17.1619 19.1994C16.8213 19.5506 16.5794 19.9854 16.4606 20.46C16.1458 22.2056 15.9918 23.9763 16.0006 25.75C15.9894 27.537 16.1433 29.3213 16.4606 31.08C16.5915 31.5398 16.8389 31.9581 17.1787 32.2945C17.5186 32.6308 17.9394 32.8738 18.4006 33C20.1206 33.46 27.0006 33.46 27.0006 33.46C27.0006 33.46 33.8806 33.46 35.6006 33C36.0713 32.8668 36.4986 32.6118 36.8392 32.2606C37.1799 31.9094 37.4218 31.4746 37.5406 31C37.8529 29.2676 38.0069 27.5103 38.0006 25.75C38.0118 23.963 37.8578 22.1787 37.5406 20.42Z" stroke="#0E101D" stroke-width="2" stroke-linecap="round" stroke-linejoin="round"/>
<path d="M24.7505 29.02L30.5005 25.75L24.7505 22.48V29.02Z" stroke="#0E101D" stroke-width="2" stroke-linecap="round" stroke-linejoin="round"/>
</svg>
